<?xml version="1.0" encoding="utf-8"?>
<!-- Generator: Adobe Illustrator 21.0.0, SVG Export Plug-In . SVG Version: 6.00 Build 0)  -->
<svg version="1.1" baseProfile="basic" id="Layer_1"
	 xmlns="http://www.w3.org/2000/svg" xmlns:xlink="http://www.w3.org/1999/xlink" x="0px" y="0px" viewBox="0 0 336 335"
	 xml:space="preserve">
<style type="text/css">
	.st0{fill:url(#SVGID_1_);}
	.st1{fill:#FFFFFF;}
</style>
<linearGradient id="SVGID_1_" gradientUnits="userSpaceOnUse" x1="428.0983" y1="401.2567" x2="433.9858" y2="406.9568" gradientTransform="matrix(94.045 0 0 -94.072 -40381.5273 38194.3047)">
	<stop  offset="0" style="stop-color:#00AEFF"/>
	<stop  offset="1" style="stop-color:#3369E7"/>
</linearGradient>
<path class="st0" d="M46.8,2.4h242.8c23.9,0,43.4,19.4,43.4,43.4v242.9c0,23.9-19.4,43.4-43.4,43.4H46.8
	c-23.9,0-43.4-19.4-43.4-43.4V45.7C3.4,21.8,22.8,2.4,46.8,2.4z"/>
<path class="st1" d="M172,85.7c-51.4,0-93.1,41.7-93.1,93.2S120.6,272,172,272s93.1-41.7,93.1-93.2S223.5,85.7,172,85.7z M172,244.5
	c-36.2,0-65.6-29.4-65.6-65.6s29.4-65.6,65.6-65.6s65.6,29.4,65.6,65.6S208.3,244.5,172,244.5z M172,126.7v48.9
	c0,1.4,1.5,2.4,2.8,1.7l43.4-22.5c1-0.5,1.3-1.7,0.8-2.7c-9-15.8-25.7-26.6-45-27.3C173,124.8,172,125.6,172,126.7z M111.2,90.8
	l-5.7-5.7c-5.6-5.6-14.6-5.6-20.2,0l-6.8,6.8c-5.6,5.6-5.6,14.6,0,20.2l5.6,5.6c0.9,0.9,2.2,0.7,3-0.2c3.3-4.5,6.9-8.8,10.9-12.8
	c4.1-4.1,8.3-7.7,12.9-11C111.9,93.1,112,91.7,111.2,90.8z M202.5,76V64.7c0-7.9-6.4-14.3-14.3-14.3h-33.3
	c-7.9,0-14.3,6.4-14.3,14.3v11.6c0,1.3,1.2,2.2,2.5,1.9c9.3-2.7,19.1-4.1,29-4.1c9.5,0,18.9,1.3,28,3.8
	C201.3,78.2,202.5,77.3,202.5,76z"/>
</svg>
